<?xml version="1.0" standalone="no"?>
<!DOCTYPE svg PUBLIC "-//W3C//DTD SVG 20010904//EN"
 "http://www.w3.org/TR/2001/REC-SVG-20010904/DTD/svg10.dtd">
<svg version="1.0" xmlns="http://www.w3.org/2000/svg"
 width="512.000000pt" height="512.000000pt" viewBox="0 0 512.000000 512.000000"
 preserveAspectRatio="xMidYMid meet">

<g transform="translate(0.000000,512.000000) scale(0.100000,-0.100000)"
fill="#000000" stroke="none">
<path d="M0 2560 l0 -2560 2560 0 2560 0 0 2560 0 2560 -2560 0 -2560 0 0
-2560z m2880 2510 c106 -15 173 -27 215 -40 22 -6 60 -16 85 -21 45 -9 188
-53 225 -69 11 -5 52 -21 90 -35 86 -34 300 -144 378 -196 32 -22 60 -39 63
-39 6 0 164 -120 229 -175 247 -208 461 -486 610 -790 54 -112 88 -198 130
-340 70 -230 69 -228 95 -392 29 -189 29 -542 -1 -727 -52 -329 -169 -653
-342 -951 -136 -234 -408 -537 -627 -700 -123 -91 -282 -188 -350 -215 -19 -7
-75 -33 -123 -57 -79 -39 -307 -122 -477 -173 -36 -11 -89 -20 -118 -20 -63 0
-132 31 -132 59 0 10 -6 24 -14 30 -8 7 -18 27 -21 44 -11 48 -65 101 -65 63
0 -8 -7 -16 -15 -20 -8 -3 -15 -15 -15 -26 0 -11 -6 -20 -14 -20 -12 0 -22
-19 -40 -72 -3 -10 -14 -18 -24 -18 -10 0 -23 -5 -29 -11 -29 -29 -309 0 -437
45 -38 13 -74 22 -81 19 -7 -2 -26 2 -43 11 -16 8 -39 12 -50 9 -15 -4 -22 -1
-22 9 0 11 -7 14 -24 11 -18 -4 -25 0 -29 18 -6 21 -7 21 -31 5 -25 -16 -26
-16 -26 4 0 24 -19 33 -64 32 -17 0 -42 -1 -56 -1 -13 -1 -29 4 -34 9 -7 7 -5
10 5 10 9 1 8 4 -5 12 -15 8 -21 8 -24 -1 -3 -9 -7 -9 -18 0 -8 7 -27 9 -45 5
-41 -8 -75 10 -58 30 16 20 2 31 -21 16 -27 -16 -55 -15 -70 3 -7 8 -18 15
-24 15 -7 0 -36 11 -64 25 -29 14 -57 25 -63 25 -19 0 -140 72 -146 86 -3 8
-11 14 -18 14 -19 0 -158 93 -230 153 -33 28 -103 94 -155 148 -145 149 -205
223 -340 424 -86 127 -220 431 -274 620 -73 260 -89 376 -88 665 0 255 11 377
49 535 95 396 275 766 518 1065 177 218 350 366 645 555 154 99 449 223 640
270 30 8 73 19 95 25 45 13 120 27 210 39 85 11 587 12 665 1z"/>
<path d="M664 3525 c9 -87 44 -181 112 -301 270 -475 544 -982 544 -1011 1
-14 9 -9 34 20 19 21 36 46 39 56 3 11 -24 71 -68 150 -72 129 -100 184 -137
271 -10 24 -34 65 -53 91 -35 49 -103 165 -168 289 -22 41 -67 125 -100 185
-33 61 -71 130 -84 155 -58 105 -95 160 -110 160 -13 0 -15 -10 -9 -65z"/>
<path d="M2840 3558 c-11 -18 -54 -98 -94 -178 -41 -80 -90 -174 -110 -208
-20 -35 -36 -66 -36 -68 0 -2 -34 -63 -75 -135 -41 -72 -75 -134 -75 -137 0
-4 -14 -25 -30 -46 -17 -22 -30 -44 -30 -49 0 -5 -43 -87 -96 -181 -53 -94
-119 -211 -147 -261 -27 -49 -58 -101 -67 -115 -10 -14 -27 -45 -39 -68 -25
-49 -43 -55 -34 -11 6 30 5 31 -18 18 -28 -15 -317 -21 -336 -7 -7 6 -20 5
-32 -1 -25 -14 -68 -14 -76 -1 -3 5 -15 6 -28 1 -12 -5 -50 -7 -85 -5 l-63 2
-55 -72 c-31 -39 -75 -107 -99 -151 -37 -70 -144 -265 -230 -420 -40 -70 -54
-85 -85 -85 -20 0 -29 -6 -33 -22 -16 -59 48 -201 106 -237 18 -11 66 -32 107
-47 62 -22 93 -27 175 -28 60 -1 120 5 150 13 66 19 178 86 224 134 20 21 48
47 63 58 36 27 57 15 104 -58 55 -86 100 -114 239 -148 92 -22 242 -8 315 30
57 29 156 104 207 157 53 55 72 90 143 268 46 117 163 345 217 428 59 88 86
101 244 112 267 20 282 24 357 94 86 80 258 362 293 481 28 92 62 166 86 188
11 9 57 28 102 41 96 28 131 51 188 120 50 62 231 357 248 406 7 19 18 72 25
118 13 81 8 110 -16 94 -11 -7 -104 -154 -104 -165 0 -8 -120 -219 -163 -285
-22 -35 -59 -76 -83 -93 -84 -58 -100 -59 -755 -59 -392 0 -607 -4 -625 -10
l-28 -11 37 -37 37 -37 543 -6 c298 -3 543 -6 545 -7 19 -15 -43 -86 -86 -98
-29 -8 -48 -42 -33 -57 6 -6 11 -17 11 -25 0 -41 -180 -349 -236 -405 -58 -58
-104 -67 -340 -67 l-202 0 -41 -55 c-44 -59 -89 -78 -130 -56 -13 7 -28 8 -38
3 -10 -5 -29 -6 -43 -2 -14 4 -35 2 -46 -3 -14 -6 -29 -5 -43 2 -15 9 -27 9
-41 1 -13 -7 -27 -7 -37 -2 -10 5 -27 6 -38 2 -20 -8 -191 -4 -205 5 -13 8
-59 -35 -103 -98 -38 -53 -118 -192 -222 -382 -132 -242 -153 -271 -175 -249
-11 11 109 253 201 404 5 8 18 33 30 55 12 22 89 159 172 305 83 146 176 312
207 370 31 58 77 143 103 190 25 47 51 108 57 135 11 52 51 121 81 143 10 7
43 56 75 110 31 53 74 124 95 158 22 33 39 63 39 67 0 4 13 28 29 54 16 27 32
58 35 70 6 18 3 20 -13 16 -18 -5 -20 1 -23 58 -4 73 -18 85 -48 37z"/>
<path d="M2361 2777 c-8 -8 -53 -12 -134 -13 -190 -2 -197 -3 -197 -17 0 -11
31 -14 141 -13 109 0 143 -4 149 -14 7 -12 13 -11 30 5 28 25 42 52 32 59 -5
3 -14 0 -21 -7z"/>
<path d="M1232 2762 c-33 -5 -21 -27 13 -25 16 1 35 -3 42 -9 9 -7 17 -7 27 1
9 7 29 9 54 5 49 -8 81 1 64 18 -10 10 -154 18 -200 10z"/>
<path d="M1475 2762 c-19 -19 49 -40 70 -22 6 5 15 6 19 2 9 -8 32 -10 136
-10 41 0 92 -1 112 -1 20 -1 39 3 43 9 9 15 25 12 25 -5 0 -21 23 -19 43 3 10
10 17 20 17 23 0 6 -459 7 -465 1z"/>
<path d="M1968 2764 c-11 -10 3 -34 19 -34 8 0 13 7 11 17 -3 18 -20 27 -30
17z"/>
<path d="M2646 2758 c-34 -19 -12 -24 106 -24 101 1 123 4 126 16 2 13 -15 15
-107 16 -60 0 -116 -3 -125 -8z"/>
<path d="M2942 2761 c-13 -3 -22 -10 -20 -16 2 -6 57 -11 135 -11 72 -1 135
-4 141 -7 12 -8 49 19 40 29 -9 8 -264 13 -296 5z"/>
<path d="M3581 2762 c-28 -6 -32 -9 -20 -19 18 -14 59 -18 83 -8 11 5 26 3 37
-4 16 -9 19 -8 19 9 0 11 -6 20 -14 20 -7 0 -26 2 -42 4 -16 2 -44 1 -63 -2z"/>
<path d="M3275 2750 c3 -5 15 -10 26 -10 10 0 19 5 19 10 0 6 -12 10 -26 10
-14 0 -23 -4 -19 -10z"/>
<path d="M3342 2748 c-8 -10 8 -13 76 -13 59 0 87 4 89 13 4 9 -16 12 -75 12
-51 0 -83 -4 -90 -12z"/>
<path d="M1737 356 c-3 -8 -2 -18 3 -21 13 -8 20 9 11 24 -6 10 -10 9 -14 -3z"/>
</g>
</svg>
